{"title":"Wake Up Sid [2009] [337MB] DVDRIP MKV Team_BDU","uid":5767645,"size":353506326,"categoryP":"video","categoryS":"movies","magnet":"?xt=urn:btih:76914246d6596aaeb61bd9409d4df1cde9547529&amp;dn=Wake+Up+Sid+%5B2009%5D+%5B337MB%5D+DVDRIP+MKV+Team_BDU&amp;tr=udp%3A%2F%2Ftracker.openbittorrent.com%3A80&amp;tr=udp%3A%2F%2Fopen.demonii.com%3A1337&amp;tr=udp%3A%2F%2Ftracker.coppersurfer.tk%3A6969&amp;tr=udp%3A%2F%2Fexodus.desync.com%3A6969","seeders":0,"leechers":0,"uploader":"Team_BDU","files":-1,"time":1281973847,"description":"General\nComplete name                    : E:\\\\MOVIES\\\\HINDI\\\\Wake Up Sid [2009] [337MB] Dvd-Rip_By [~SAIF~] [~TDT~].mkv\nFormat                           : Matroska\nFile size                        : 337 MiB\nDuration                         : 2h 20mn\nOverall bit rate                 : 337 Kbps\nMovie name                       : Avidemux\nWriting application              : Lavf52.61.0\nWriting library                  : Lavf52.61.0\n\nVideo\nID                               : 1\nFormat                           : MPEG-4 Visual\nFormat profile                   : Advanced Simple@L5\nFormat settings, BVOP            : Yes\nFormat settings, QPel            : No\nFormat settings, GMC             : No warppoints\nFormat settings, Matrix          : Default (H.263)\nCodec ID                         : V_MPEG4/ISO/ASP\nCodec ID/Info                    : Advanced Simple Profile\nDuration                         : 2h 20mn\nBit rate                         : 266 Kbps\nWidth                            : 592 pixels\nHeight                           : 300 pixels\nDisplay aspect ratio             : 1.973\nFrame rate                       : 23.976 fps\nColor space                      : YUV\nChroma subsampling               : 4:2:0\nBit depth                        : 8 bits\nScan type                        : Progressive\nBits/(Pixel*Frame)               : 0.062\nStream size                      : 266 MiB (79%)\nWriting library                  : XviD 1.2.1 (UTC 2008-12-04)\n\nAudio\nID                               : 2\nFormat                           : MPEG Audio\nFormat version                   : Version 1\nFormat profile                   : Layer 3\nCodec ID                         : A_MPEG/L3\nCodec ID/Hint                    : MP3\nDuration                         : 2h 20mn\nBit rate mode                    : Constant\nBit rate                         : 64.0 Kbps\nChannel(s)                       : 2 channels\nSampling rate                    : 48.0 KHz\nVideo delay                      : -42ms\nStream size                      : 64.1 MiB (19%)","torrent":{"xt":"urn:btih:76914246d6596aaeb61bd9409d4df1cde9547529","amp;dn":"Wake+Up+Sid+%5B2009%5D+%5B337MB%5D+DVDRIP+MKV+Team_BDU","amp;tr":["udp%3A%2F%2Ftracker.openbittorrent.com%3A80","udp%3A%2F%2Fopen.demonii.com%3A1337","udp%3A%2F%2Ftracker.coppersurfer.tk%3A6969","udp%3A%2F%2Fexodus.desync.com%3A6969"],"infoHash":"76914246d6596aaeb61bd9409d4df1cde9547529","infoHashBuffer":{"type":"Buffer","data":[118,145,66,70,214,89,106,174,182,27,217,64,157,77,241,205,233,84,117,41]},"announce":[],"urlList":[]}}